<svg width="251" height="46" viewBox="0 0 251 46" fill="none" xmlns="http://www.w3.org/2000/svg">
<g clip-path="url(#clip0_84_2)">
<path d="M0 46.33H46.3756V0H0V46.33Z" fill="#00B67A"/>
<path d="M39.5339 19.7115L13.2302 38.8007L17.0685 27.0029L7.02115 19.7115H19.4401L23.2775 7.91284L27.115 19.7115H39.5339ZM23.2785 31.5101L30.4621 30.0005L33.3242 38.8007L23.2785 31.5101Z" fill="white"/>
<path d="M51.2482 46.33H97.6237V0H51.2482V46.33Z" fill="#00B67A"/>
<path d="M51.2482 46.33H74.436V0H51.2482V46.33Z" fill="#00B67A"/>
<path d="M74.991 31.3299L81.1509 30L84 39L74.3398 31.7972L64.3028 39L68.1984 27.1593L58 19.8415H70.6056L74.4996 8L78.3952 19.8415H91L74.991 31.3299V31.3299Z" fill="white"/>
<path d="M102.532 46.33H148.908V0H102.532V46.33Z" fill="#00B67A"/>
<path d="M102.532 46.33H125.72V0H102.532V46.33Z" fill="#00B67A"/>
<path d="M142.067 19.7115L115.763 38.8007L119.602 27.0029L109.554 19.7115H121.973L125.811 7.91284L129.648 19.7115H142.067V19.7115ZM125.812 31.5101L132.995 30.0005L135.857 38.8007L125.812 31.5101Z" fill="white"/>
<path d="M153.815 46.33H200.191V0H153.815V46.33Z" fill="#00B67A"/>
<path d="M153.815 46.33H177.003V0H153.815V46.33Z" fill="#00B67A"/>
<path d="M193.348 19.7115L167.045 38.8007L170.883 27.0029L160.836 19.7115H173.255L177.092 7.91284L180.929 19.7115H193.348V19.7115ZM177.093 31.5101L184.277 30.0005L187.139 38.8007L177.093 31.5101Z" fill="white"/>
<path d="M205.064 46.33H251.44V0H205.064V46.33Z" fill="#DCDCE6"/>
<path d="M205.064 46.33H228.252V0H205.064V46.33Z" fill="#00B67A"/>
<path d="M244.597 19.7115L218.294 38.8007L222.132 27.0029L212.084 19.7115H224.503L228.341 7.91284L232.178 19.7115H244.597V19.7115ZM228.342 31.5101L235.525 30.0005L238.387 38.8007L228.342 31.5101Z" fill="white"/>
</g>
<defs>
<clipPath id="clip0_84_2">
<rect width="251" height="46" fill="white"/>
</clipPath>
</defs>
</svg>
