<svg xmlns="http://www.w3.org/2000/svg" width="88" height="88" fill="none" xmlns:v="https://vecta.io/nano"><g clip-path="url(#A)"><g stroke="#c5cde9" stroke-miterlimit="10"><path d="M87.506.494H.494v87.011h87.011V.494z"/><path d="M40.045 71.873H8.405m23.73 0h-4.133m-3.777 7.812H8.405"/><path d="M32.135 79.685h-4.133M79.003 16H51.435v15.82h27.568V16z"/><path d="M59.339 39.731h-7.905v7.91h7.905v-7.91zm3.903 0h16.195M63.242 47.64h16.195m-8.339 15.821h7.905v-7.91h-7.905v7.91zm-3.903 0H51m16.195-7.91H51m0 15.82h28.438"/></g><g stroke="#673de6" stroke-width="3"><path d="M42.852 20l20.095 11.333C63.968 50 49.976 62.889 42.852 67 25.5 57.133 22.438 39.111 23.076 31.333L42.852 20z" fill="#fff"/><path d="M34 41.971L42.235 50 54 37" stroke-linecap="round"/></g></g><defs><clipPath id="A"><path fill="#fff" d="M0 0h88v88H0z"/></clipPath></defs></svg>