<svg xmlns="http://www.w3.org/2000/svg" width="30" height="30" fill="none" xmlns:v="https://vecta.io/nano"><path d="M7 6a2 2 0 0 0-2 2v14a2 2 0 0 0 2 2h8.549c-.117-.304-.22-.622-.303-.955s-.146-.68-.187-1.045H7v-8h14 1 1V8a2 2 0 0 0-2-2H7zm0 2h14v4H7V8zm2 1a1 1 0 0 0-1 1 1 1 0 0 0 1 1 1 1 0 0 0 1-1 1 1 0 0 0-1-1zm3 0a1 1 0 0 0-1 1 1 1 0 0 0 1 1 1 1 0 0 0 1-1 1 1 0 0 0-1-1zm3 0v2h4V9h-4z" fill="#2f1c6a"/><path d="M17 18l4.5-2 4.5 2v3c0 3.915-3.22 5.743-4.5 6-1.28-.257-4.5-2.085-4.5-6v-3z" fill="#673de6"/></svg>