<svg xmlns="http://www.w3.org/2000/svg" width="24" height="24" fill="none" xmlns:v="https://vecta.io/nano"><path d="M22 2l-5.301.801 1.543 1.543-3.065 3.064L13.568 5.9l-4.076 4.178-1.484-1.484-4.705 4.609 1.4 1.428 3.289-3.225 1.516 1.516 4.123-4.223 1.592 1.492 4.433-4.434 1.543 1.543L22 2zm-3 8v11h2V10h-2zm-4 2v9h2v-9h-2zm-4 2v7h2v-7h-2zm-4 2v5h2v-5H7zm-4 2v3h2v-3H3z" fill="#673de6"/><path d="M19 10v11h2V10h-2zm-4 2v9h2v-9h-2zm-4 2v7h2v-7h-2zm-4 2v5h2v-5H7zm-4 2v3h2v-3H3z" fill="#2f1c6a"/></svg>