<svg xmlns="http://www.w3.org/2000/svg" width="24" height="24" fill="none" xmlns:v="https://vecta.io/nano"><path d="M20.365 2.012a1.74 1.74 0 0 0-.43.006C17.764 2.323 12.72 3.156 7.717 9H5.074l-2.676 2.785c-.372.372-.483.927-.281 1.414S2.789 14 3.316 14h2.27l.104.104c-.273.345-.428.709-.582 1.109a14.3 14.3 0 0 0-.475 1.519c-.26 1.001-.414 1.893-.414 1.893l-.248 1.404 1.404-.248s.892-.154 1.893-.414c.5-.13 1.032-.287 1.52-.475.401-.154.765-.309 1.109-.582l.104.104v2.269a1.29 1.29 0 0 0 .801 1.199c.165.069.337.1.506.1.331 0 .651-.123.875-.348L15 19.066v-2.783c5.844-5.003 6.677-10.048 6.982-12.219.143-1.018-.639-1.946-1.617-2.053zm-.412 2.035c-.357 2.543-1.162 7.535-8.828 12.664l-3.836-3.836c5.129-7.666 10.121-8.471 12.664-8.828zM7.148 15.562l1.289 1.289c-.107.057-.222.118-.371.176-.375.144-.848.284-1.303.402-.13.034-.124.025-.248.055.03-.124.021-.118.055-.248.118-.455.258-.928.402-1.303.057-.149.119-.264.176-.371z" fill="#2f1c6a"/><path d="M14.293 8.293a1 1 0 0 1 1.414 1.414 1 1 0 0 1-1.414-1.414zm-3 3a1 1 0 0 1 1.414 1.414 1 1 0 0 1-1.414-1.414z" fill="#673de6"/></svg>