<svg xmlns="http://www.w3.org/2000/svg" width="88" height="90" fill="none" xmlns:v="https://vecta.io/nano"><g stroke="#c5cde9" stroke-miterlimit="10"><path d="M81.067 1H.733v88h80.334V1z"/><path d="M35.584 5.046l5.513 5.622-5.513 5.622M20.203 72.745c-5.673-4.342-9.864-10.393-11.98-17.298s-2.049-14.313.19-21.177 6.538-12.836 12.288-17.072 12.66-6.52 19.753-6.53m4.726 74.457l-5.513-5.622 5.513-5.622m15.425-56.455c5.676 4.344 9.868 10.399 11.983 17.308a35.14 35.14 0 0 1-.2 21.187c-2.245 6.866-6.55 12.838-12.307 17.07s-12.673 6.51-19.77 6.511"/></g><g fill="#673de6"><path d="M87.267 54.541a1.41 1.41 0 0 1-.112.544 1.4 1.4 0 0 1-.31.456L75.853 66.542l-2.069 2.06c-.277.27-.646.421-1.03.421s-.752-.151-1.03-.421l-2.069-2.06-5.501-5.491a1.45 1.45 0 0 1-.312-.472 1.48 1.48 0 0 1 0-1.116 1.45 1.45 0 0 1 .312-.472l2.03-2.04c.277-.276.648-.43 1.034-.43s.758.154 1.035.43l4.462 4.471 9.953-10.001a1.45 1.45 0 0 1 .479-.316c.178-.072.369-.107.561-.104a1.42 1.42 0 0 1 .981.42l2.157 2.12a1.4 1.4 0 0 1 .31.457 1.45 1.45 0 0 1 .112.544zm-67.337-9.46c0 8.177 4.625 15.244 11.331 18.593l-9.59-27c-1.116 2.569-1.741 5.413-1.741 8.407zm33.678-1.042c0-2.553-.892-4.321-1.658-5.697-1.019-1.702-1.974-3.143-1.974-4.845 0-1.899 1.402-3.667 3.376-3.667.089 0 .174.011.261.017-3.577-3.367-8.342-5.423-13.576-5.423-7.024 0-13.203 3.703-16.798 9.312l1.294.025c2.103 0 5.358-.262 5.358-.262 1.084-.066 1.212 1.57.129 1.702 0 0-1.089.132-2.301.197l7.321 22.377 4.4-13.559-3.132-8.819c-1.083-.065-2.108-.197-2.108-.197-1.083-.065-.956-1.767.127-1.702 0 0 3.32.262 5.296.262 2.103 0 5.358-.262 5.358-.262 1.085-.066 1.212 1.57.129 1.702 0 0-1.091.132-2.301.197l7.266 22.207 2.005-6.886c.869-2.857 1.531-4.91 1.531-6.678zm-13.218 2.85L34.358 64.9c1.801.544 3.706.842 5.679.842a19.6 19.6 0 0 0 6.676-1.171c-.054-.089-.103-.182-.143-.285l-6.18-17.397zm17.287-11.72a16.35 16.35 0 0 1 .136 2.124c0 2.096-.381 4.453-1.529 7.4l-6.141 18.245c5.977-3.581 9.997-10.235 9.997-17.857 0-3.592-.892-6.969-2.463-9.912z"/><path fill-rule="evenodd" d="M16.601 45.081C16.601 31.803 27.115 21 40.037 21s23.437 10.803 23.437 24.081-10.515 24.082-23.437 24.082-23.436-10.802-23.436-24.082zm1.073 0c0 12.67 10.032 22.978 22.362 22.978s22.36-10.308 22.36-22.978-10.031-22.977-22.36-22.977-22.362 10.307-22.362 22.977z"/></g></svg>