<svg width="322" height="322" viewBox="0 0 322 322" fill="none" xmlns="http://www.w3.org/2000/svg">
    <path fill-rule="evenodd" clip-rule="evenodd"
        d="M160.58 30.1087C125.977 30.1087 92.7909 43.8547 68.3228 68.3228C43.8547 92.7909 30.1087 125.977 30.1087 160.58C30.1087 195.183 43.8547 228.369 68.3228 252.837C92.7909 277.305 125.977 291.051 160.58 291.051C195.183 291.051 228.369 277.305 252.837 252.837C277.305 228.369 291.051 195.183 291.051 160.58C291.051 125.977 277.305 92.7909 252.837 68.3228C228.369 43.8547 195.183 30.1087 160.58 30.1087V30.1087ZM0 160.58C0 117.991 16.9182 77.1473 47.0327 47.0327C77.1473 16.9182 117.991 0 160.58 0C203.168 0 244.012 16.9182 274.127 47.0327C304.241 77.1473 321.16 117.991 321.16 160.58C321.16 203.168 304.241 244.012 274.127 274.127C244.012 304.241 203.168 321.16 160.58 321.16C117.991 321.16 77.1473 304.241 47.0327 274.127C16.9182 244.012 0 203.168 0 160.58V160.58ZM180.652 220.797C180.652 226.121 178.538 231.226 174.773 234.991C171.009 238.755 165.903 240.87 160.58 240.87C155.256 240.87 150.151 238.755 146.386 234.991C142.622 231.226 140.507 226.121 140.507 220.797C140.507 215.474 142.622 210.368 146.386 206.604C150.151 202.84 155.256 200.725 160.58 200.725C165.903 200.725 171.009 202.84 174.773 206.604C178.538 210.368 180.652 215.474 180.652 220.797V220.797ZM138.902 122.141C140.527 118.929 142.715 116.139 145.726 114.152C148.637 112.205 153.173 110.399 160.58 110.399C166.2 110.399 171.68 112.145 175.393 114.915C177.081 116.092 178.447 117.673 179.365 119.514C180.284 121.355 180.727 123.397 180.652 125.453C180.652 129.006 179.849 130.752 179.107 131.836C177.591 133.822 175.702 135.492 173.547 136.754C172.021 137.777 170.375 138.761 168.368 139.985L168.227 140.066C166.102 141.32 164.008 142.625 161.945 143.98C156.476 147.432 151.754 151.943 148.055 157.248C145.892 160.57 145.127 164.611 145.926 168.494C146.725 172.376 149.023 175.787 152.321 177.986C155.619 180.185 159.652 180.994 163.543 180.238C167.434 179.482 170.87 177.222 173.105 173.948C174.615 171.965 176.496 170.294 178.645 169.03C180.358 167.918 182.099 166.847 183.864 165.819L183.984 165.738C185.851 164.594 188.079 163.27 190.267 161.824C194.723 158.834 200.042 154.699 204.157 148.536C208.453 142.113 210.761 134.445 210.761 125.453C210.761 110.198 203.535 98.3953 193.438 90.828C183.887 83.9067 172.375 80.2149 160.58 80.2899C147.914 80.2899 137.396 83.5015 129.026 89.0817C120.736 94.6217 115.377 101.888 111.984 108.692C111.083 110.463 110.541 112.395 110.39 114.376C110.239 116.357 110.481 118.348 111.103 120.235C111.725 122.122 112.715 123.867 114.015 125.37C115.314 126.872 116.899 128.103 118.676 128.99C120.454 129.878 122.389 130.405 124.372 130.541C126.354 130.676 128.343 130.419 130.225 129.782C132.107 129.145 133.845 128.142 135.337 126.831C136.83 125.519 138.048 123.925 138.922 122.141H138.902Z"
        fill="#36344d" />
</svg>