<svg xmlns="http://www.w3.org/2000/svg" width="88" height="88" fill="none" xmlns:v="https://vecta.io/nano"><g clip-path="url(#A)"><g stroke="#c5cde9" stroke-miterlimit="10"><path d="M24 34h15.744m24.148 37.749h15.744m-23.616 0h4.113M16.659 40.233h15.744"/><path d="M8.787 40.233H12.9m31.312 15.758v31.516M70.78 26.612v60.896M16.659 63.87v23.637"/><path d="M87.509.345L56.02 32.354 44.212 55.991 16.66 63.87.916 87.508h86.593V.837.345z"/></g><path d="M29.959 43.192c.05-.06.113-.109.184-.142s.148-.05.227-.05.156.017.226.05.134.082.184.142l2.571 2.966 2.225 2.6c.067.078.109.174.123.276s-.003.205-.046.298-.113.171-.201.225-.188.082-.291.081h-2.699c-.142.003-.278.061-.378.163s-.156.238-.156.381v18.201c0 .141-.056.277-.156.377s-.236.156-.378.156h-1.977c-.143 0-.279-.056-.381-.156s-.16-.236-.163-.378V50.222c0-.143-.056-.279-.156-.381s-.236-.16-.378-.163H25.54a.54.54 0 0 1-.29-.086c-.087-.056-.155-.134-.199-.227s-.06-.197-.047-.299.055-.198.12-.277l2.225-2.59 2.61-3.005z" fill="#613fdd"/><rect x="29" y="71" width="3" height="5" rx=".5" fill="#673de6"/><path d="M58.959 11.192c.05-.06.113-.109.184-.142s.148-.05.227-.05.156.017.227.05.134.082.184.142l2.571 2.966 2.225 2.6c.067.078.109.174.123.276s-.002.205-.046.298-.114.171-.201.225-.188.082-.291.081h-2.699c-.142.003-.278.061-.378.163s-.156.239-.156.381v18.201c0 .142-.056.277-.156.377s-.236.156-.378.156h-1.977c-.142 0-.279-.056-.381-.156s-.16-.236-.163-.378V18.222c0-.142-.056-.279-.156-.381s-.236-.16-.378-.163H54.54a.54.54 0 0 1-.29-.086c-.087-.055-.156-.134-.199-.227s-.06-.197-.047-.299.055-.198.12-.277l2.225-2.59 2.61-3.006z" fill="#613fdd"/><g fill="#673de6"><rect x="58" y="54" width="3" height="3" rx=".5"/><rect x="58" y="39" width="3" height="13" rx=".5"/></g></g><defs><clipPath id="A"><path fill="#fff" d="M0 0h88v88H0z"/></clipPath></defs></svg>