<svg xmlns="http://www.w3.org/2000/svg" width="88" height="88" fill="none" xmlns:v="https://vecta.io/nano"><g stroke="#c5cde9"><path d="M.5.5h87v87H.5z"/><path d="M.5 14.5h87"/><circle cx="10" cy="8" r="3.5"/><circle cx="21" cy="8" r="3.5"/><circle cx="31" cy="8" r="3.5"/></g><g stroke-linecap="round" stroke-width="2.368"><path d="M44.122 74.114C57.31 74.114 68 63.343 68 50.057S57.31 26 44.122 26" stroke="#d1dcff"/><path d="M67.755 50.059c0-13.286-10.69-24.057-23.878-24.057S20 36.772 20 50.059" stroke="#acbfff"/><path d="M43.878 26C30.691 26 20 36.771 20 50.057s10.69 24.057 23.878 24.057" stroke="#6d61ff"/></g><path d="M27 50.127a17.14 17.14 0 0 0 9.581 15.415l-8.109-22.385A17.17 17.17 0 0 0 27 50.127zm28.477-.864c0-2.117-.755-3.583-1.402-4.724-.862-1.411-1.669-2.606-1.669-4.017 0-1.574 1.185-3.04 2.855-3.04.075 0 .147.009.22.014C52.456 34.705 48.426 33 44 33c-5.939 0-11.164 3.07-14.204 7.72l1.094.021c1.778 0 4.531-.217 4.531-.217.916-.054 1.024 1.302.109 1.411 0 0-.921.109-1.946.163l6.191 18.552 3.72-11.242-2.649-7.311c-.915-.054-1.783-.163-1.783-.163-.916-.054-.809-1.465.107-1.411 0 0 2.807.217 4.478.217 1.778 0 4.531-.217 4.531-.217.917-.054 1.025 1.302.109 1.411 0 0-.923.109-1.946.163l6.143 18.412 1.696-5.709c.735-2.369 1.294-4.071 1.294-5.537zM44.3 51.625l-5.1 14.933a16.88 16.88 0 0 0 4.802.698c1.98 0 3.878-.345 5.645-.971a1.51 1.51 0 0 1-.121-.236L44.3 51.625zm14.618-9.716a13.24 13.24 0 0 1 .114 1.761c0 1.738-.322 3.692-1.293 6.135l-5.193 15.126A17.14 17.14 0 0 0 61 50.127a17.14 17.14 0 0 0-2.083-8.218z" fill="#673de6"/></svg>