<svg width="12" height="12" viewBox="0 0 12 12" fill="none" xmlns="http://www.w3.org/2000/svg">
<path d="M11.807 10.415L10.412 11.807C10.3512 11.868 10.279 11.9165 10.1994 11.9495C10.1199 11.9826 10.0346 11.9996 9.94848 11.9996C9.86235 11.9996 9.77706 11.9826 9.69752 11.9495C9.61798 11.9165 9.54575 11.868 9.48498 11.807L5.99998 8.32398L2.51698 11.807C2.45596 11.8681 2.38348 11.9166 2.30369 11.9497C2.2239 11.9828 2.13837 11.9998 2.05198 11.9998C1.9656 11.9998 1.88007 11.9828 1.80028 11.9497C1.72049 11.9166 1.64801 11.8681 1.58698 11.807L0.192984 10.415C0.131847 10.354 0.0833435 10.2815 0.0502499 10.2017C0.0171563 10.1219 0.00012207 10.0364 0.00012207 9.94998C0.00012207 9.8636 0.0171563 9.77807 0.0502499 9.69828C0.0833435 9.61849 0.131847 9.54601 0.192984 9.48498L3.67498 5.99998L0.192984 2.51698C0.0707233 2.3931 0.00217308 2.22604 0.00217308 2.05198C0.00217308 1.87793 0.0707233 1.71087 0.192984 1.58698L1.58698 0.192984C1.64801 0.131847 1.72049 0.0833437 1.80028 0.0502501C1.88007 0.0171564 1.9656 0.00012207 2.05198 0.00012207C2.13837 0.00012207 2.2239 0.0171564 2.30369 0.0502501C2.38348 0.0833437 2.45596 0.131847 2.51698 0.192984L5.99998 3.67798L9.48498 0.192984C9.54575 0.131939 9.61798 0.0834987 9.69752 0.0504456C9.77706 0.0173924 9.86235 0.000377655 9.94848 0.000377655C10.0346 0.000377655 10.1199 0.0173924 10.1994 0.0504456C10.279 0.0834987 10.3512 0.131939 10.412 0.192984L11.807 1.58498C11.9301 1.70869 11.9994 1.87603 11.9998 2.05057C12.0002 2.22512 11.9316 2.39275 11.809 2.51698L8.32398 5.99998L11.807 9.48498C11.8681 9.54601 11.9166 9.61849 11.9497 9.69828C11.9828 9.77807 11.9998 9.8636 11.9998 9.94998C11.9998 10.0364 11.9828 10.1219 11.9497 10.2017C11.9166 10.2815 11.8681 10.354 11.807 10.415Z" fill="#FF4747"/>
</svg>
