<svg width="34" height="50" viewBox="0 0 34 50" fill="#673DE6" xmlns="http://www.w3.org/2000/svg">
    <path
        d="M0.979047 5.12702C0.230129 5.76431 0.154273 6.18137 0 6.92194V43.0651C0.0298656 43.6647 0.130743 43.8098 0.285555 44.1257C0.671255 44.8284 1.07454 45.031 1.83571 45.3495C2.69578 45.672 3.12311 45.4642 3.87539 45.0232L4.73206 44.2889L12.2381 37.2316C12.9647 36.6262 13.0686 36.2189 13.2495 35.5104L13.2579 35.4775L13.2171 1.94513C13.0203 1.12678 12.6788 0.817016 11.9933 0.313378C11.2176 -0.0834056 10.7442 -0.0626771 9.87205 0.150203C7.53322 1.442 2.48025 4.24588 0.979047 5.12702Z" />
    <path
        d="M15.012 37.354C14.5195 37.4419 14.2767 37.5652 13.8698 37.8435L6.11904 45.0232C4.63061 46.294 4.91905 46.4635 4.65047 47.1444C4.57696 48.0231 4.70957 48.4198 5.14 49.021C5.62149 49.6885 6.01346 49.8771 6.85333 50H24.8025C25.6105 49.8406 25.9999 49.6727 26.4751 49.1025L32.4309 41.8413C32.8325 41.4401 33.0379 41.1968 33.2468 40.6175C33.5638 38.8815 32.9364 38.3266 32.3946 37.8475L32.3901 37.8435C31.8647 37.4563 31.5379 37.3115 30.84 37.3132L15.012 37.354Z" />
</svg>