<svg width="136" height="30" viewBox="0 0 136 30" fill="#2F1C6A" xmlns="http://www.w3.org/2000/svg">
    <path fill-rule="evenodd" clip-rule="evenodd"
        d="M111.998 9.11679C109.197 8.72011 108.358 9.24452 106.93 10.1362L106.8 10.2176C105.441 11.4171 105.225 12.1286 104.893 13.2179L104.893 13.2182C104.858 13.3345 104.821 13.4552 104.781 13.5812C104.423 16.4163 104.84 17.6573 106.433 19.391C108.787 21.0421 109.914 20.8918 111.842 20.6349L111.998 20.6141C113.965 20.0405 114.762 19.3178 115.728 17.434C116.441 15.6451 116.448 14.6115 115.912 12.725C114.886 10.1716 113.858 9.77109 111.998 9.11679ZM78.4232 14.8043V18.4125C76.2868 18.8188 75.4501 18.477 74.3869 17.1894C74.3498 17.1094 74.3134 17.0319 74.2778 16.9562C73.7213 15.7734 73.3776 15.0427 74.2646 12.725C75.005 11.7993 75.4469 11.3015 77.1389 11.1349C78.4573 11.1231 79.1617 11.2403 80.319 11.8076L80.8083 9.66719C79.2724 9.06156 78.3966 9.02616 76.8332 8.99448C74.4786 9.33637 73.5599 9.94743 72.3076 11.4407C71.5131 12.58 71.3516 13.1685 71.2068 14.1927C71.0933 16.3656 71.4317 17.374 72.5522 18.9017C74.0744 20.289 75.0143 20.89 77.2612 20.7976C78.7423 20.7605 79.5547 20.6718 80.8694 20.0025V14.682L78.4232 14.8043ZM24.6672 9.17795H27.1746L27.1605 18.4946H31.6228V20.6141H24.6672V9.17795ZM33.2902 9.17795H35.7976V20.6444H33.2723V9.1814L33.2902 9.17795ZM40.8735 20.6752V13.2142L46.0718 20.6752L48.3957 20.6141V9.17795H45.9495V16.5166L40.7902 9.17795H38.4273V20.6752H40.8735ZM50.9642 9.17795H58.2685L58.2418 11.3184H53.5052V13.8869H57.5691L57.5079 15.8439H53.5052V18.5348H58.4864L58.3641 20.6141H50.9642V9.17795ZM61.9723 20.6141L59.4037 20.4918L63.6235 9.17795H66.4367L70.5953 20.5529L68.0267 20.6752L67.2317 18.3513H62.7062L61.9723 20.6141ZM90.3486 9.17795H83.1322V20.6752L90.5321 20.6141L90.6544 18.5348H85.6396V15.8439H89.6759V13.8869H85.6396V11.3184L90.3486 11.2572V9.17795ZM92.6725 9.17795H95.2411V13.8258H100.072V9.17795H102.641V20.6141H100.072V15.9662H95.2411V20.6141H92.6725V9.17795ZM118.113 17.9844C119.443 18.5026 120.198 18.7528 121.66 18.7182C123.004 18.2658 123.101 17.7828 122.639 16.7001C121.936 16.1816 121.549 16.0139 120.865 15.7828C120.695 15.7066 120.532 15.6364 120.376 15.5692L120.375 15.5688L120.374 15.5684L120.373 15.5679L120.373 15.5678C119.224 15.0729 118.447 14.7383 117.808 13.3365C117.627 12.4223 117.69 11.8983 117.991 10.9515C118.666 9.96121 119.152 9.55562 120.315 9.2391L120.37 9.22914C121.95 8.94595 122.853 8.78411 125.024 9.60603L124.596 11.6242C124.459 11.5839 124.329 11.5444 124.203 11.5064L124.203 11.5063C123.011 11.1462 122.233 10.9113 120.865 11.2572C120.125 11.8673 120.122 12.2171 120.437 12.8473C121.135 13.3744 121.603 13.5891 122.517 13.8869C123.686 14.3896 124.213 14.786 124.963 15.6605C125.561 16.6946 125.68 17.6845 124.718 19.4521C123.746 20.4165 123.087 20.7548 121.599 20.7975C119.97 20.7672 119.086 20.6733 117.685 20.0637L118.113 17.9844ZM126.186 11.3184L126.125 9.17794H135.665V11.3184H132.179V20.6141H129.672V11.3184H126.186ZM63.3177 16.3823L65.0301 11.7956L66.559 16.3823H63.3177ZM107.228 14.7923C107.32 13.6698 107.418 13.0556 108.206 12.1626C108.934 11.3522 109.481 11.107 110.713 11.0618C112.216 11.4338 112.892 11.8763 113.588 13.3857C113.595 13.4296 113.602 13.4727 113.609 13.5151C113.785 14.5714 113.891 15.2022 113.465 16.4435C113.037 17.505 112.644 17.8734 111.814 18.3393C110.573 18.6539 110.099 18.6052 109.429 18.3393C109.396 18.3224 109.364 18.3059 109.332 18.2896C108.527 17.8781 108.046 17.6327 107.595 16.6881C107.359 16.0209 107.295 15.5926 107.228 14.7923Z" />
    <path
        d="M0.583192 3.05403C0.137082 3.43365 0.0918964 3.68208 0 4.12322V25.6527C0.0177902 26.0099 0.0778803 26.0964 0.170098 26.2845C0.399849 26.7031 0.640073 26.8238 1.09349 27.0135C1.6058 27.2056 1.86035 27.0818 2.30847 26.8191L2.81876 26.3817L7.28991 22.1779C7.7227 21.8173 7.78464 21.5747 7.89239 21.1526L7.8974 21.133L7.8731 1.15866C7.75587 0.671194 7.55241 0.486675 7.14411 0.186671C6.68205 -0.0496825 6.40005 -0.0373351 5.88052 0.0894722C4.48734 0.858962 1.47742 2.52916 0.583192 3.05403Z" />
    <path
        d="M8.94228 22.2508C8.64889 22.3032 8.50424 22.3766 8.26189 22.5424L3.64495 26.8191C2.75833 27.5761 2.93015 27.6771 2.77016 28.0827C2.72637 28.6061 2.80537 28.8424 3.06176 29.2005C3.34857 29.5981 3.58206 29.7105 4.08235 29.7837H14.7742C15.2555 29.6888 15.4874 29.5887 15.7705 29.2491L19.3182 24.9237C19.5574 24.6848 19.6798 24.5399 19.8042 24.1948C19.993 23.1607 19.6193 22.8302 19.2966 22.5448L19.2939 22.5424C18.9809 22.3117 18.7863 22.2255 18.3706 22.2265L8.94228 22.2508Z" />
</svg>